<svg width="400" height="300" viewBox="0 0 400 300" fill="none" xmlns="http://www.w3.org/2000/svg">
  <defs>
    <linearGradient id="pz-bg" x1="0" y1="0" x2="400" y2="300" gradientUnits="userSpaceOnUse">
      <stop stop-color="#7c3aed"/>
      <stop offset="1" stop-color="#ec4899"/>
    </linearGradient>
    <linearGradient id="pz-tile" x1="0" y1="0" x2="0" y2="1">
      <stop stop-color="#ffffff"/>
      <stop offset="1" stop-color="#f3e8ff"/>
    </linearGradient>
  </defs>
  <rect width="400" height="300" rx="24" fill="url(#pz-bg)"/>
  <circle cx="330" cy="230" r="90" fill="#ffffff" opacity="0.08"/>
  <circle cx="70" cy="70" r="60" fill="#ffffff" opacity="0.08"/>
  <!-- puzzle piece -->
  <path d="M120 95 h55 a14 14 0 0 1 14 14 v0 a16 16 0 0 0 32 0 a14 14 0 0 1 14 -14 h55 v55 a14 14 0 0 1 -14 14 a16 16 0 0 0 0 32 a14 14 0 0 1 14 14 v55 h-55 a14 14 0 0 1 -14 -14 a16 16 0 0 0 -32 0 a14 14 0 0 1 -14 14 h-55 v-55 a14 14 0 0 0 -14 -14 a16 16 0 0 1 0 -32 a14 14 0 0 0 14 -14 z"
        fill="url(#pz-tile)" opacity="0.95"/>
  <g font-family="system-ui, sans-serif" font-weight="900" font-size="46" fill="#7c3aed" text-anchor="middle">
    <text x="200" y="215">A</text>
  </g>
</svg>
