<svg width="400" height="300" viewBox="0 0 400 300" fill="none" xmlns="http://www.w3.org/2000/svg">
  <defs>
    <linearGradient id="qz-bg" x1="0" y1="0" x2="400" y2="300" gradientUnits="userSpaceOnUse">
      <stop stop-color="#4361ee"/>
      <stop offset="1" stop-color="#06b6d4"/>
    </linearGradient>
  </defs>
  <rect width="400" height="300" rx="24" fill="url(#qz-bg)"/>
  <circle cx="320" cy="70" r="90" fill="#ffffff" opacity="0.07"/>
  <circle cx="80" cy="250" r="70" fill="#ffffff" opacity="0.07"/>
  <!-- big question mark -->
  <text x="120" y="200" font-family="system-ui, sans-serif" font-weight="900" font-size="200" fill="#ffffff" opacity="0.16" text-anchor="middle">?</text>
  <!-- option bubbles -->
  <g font-family="system-ui, sans-serif" font-weight="800" font-size="22" fill="#3a0ca3">
    <g transform="translate(150 90)">
      <rect x="0" y="0" width="210" height="46" rx="23" fill="#ffffff"/>
      <circle cx="26" cy="23" r="12" fill="#4361ee"/>
      <rect x="52" y="16" width="130" height="14" rx="7" fill="#c7d2fe"/>
    </g>
    <g transform="translate(150 150)">
      <rect x="0" y="0" width="210" height="46" rx="23" fill="#ffffff"/>
      <circle cx="26" cy="23" r="12" fill="#16a34a"/>
      <path d="M20 23 l4 5 l8 -10" stroke="#ffffff" stroke-width="3" fill="none" stroke-linecap="round" stroke-linejoin="round"/>
      <rect x="52" y="16" width="110" height="14" rx="7" fill="#bbf7d0"/>
    </g>
    <g transform="translate(150 210)">
      <rect x="0" y="0" width="210" height="46" rx="23" fill="#ffffff"/>
      <circle cx="26" cy="23" r="12" fill="#4361ee"/>
      <rect x="52" y="16" width="150" height="14" rx="7" fill="#c7d2fe"/>
    </g>
  </g>
</svg>
